<svg width="269" height="269" viewBox="0 0 269 269" fill="none" xmlns="http://www.w3.org/2000/svg">
<rect x="49" y="49" width="171" height="171" rx="85.5" fill="url(#paint0_radial_119_98)"/>
<path fill-rule="evenodd" clip-rule="evenodd" d="M134.5 0C60.2168 0 0 60.2178 0 134.5C0 208.782 60.2168 269 134.5 269C208.783 269 269 208.782 269 134.5C269 60.2178 208.783 0 134.5 0ZM134.5 49C87.2793 49 49 87.2798 49 134.5C49 181.72 87.2793 220 134.5 220C181.721 220 220 181.72 220 134.5C220 87.2798 181.721 49 134.5 49Z" fill="url(#paint1_radial_119_98)"/>
<defs>
<radialGradient id="paint0_radial_119_98" cx="0" cy="0" r="1" gradientUnits="userSpaceOnUse" gradientTransform="translate(117.5 117.5) rotate(48.5763) scale(90.6863)">
<stop stop-color="white" stop-opacity="0.505"/>
<stop offset="1" stop-color="white" stop-opacity="0"/>
</radialGradient>
<radialGradient id="paint1_radial_119_98" cx="0" cy="0" r="1" gradientUnits="userSpaceOnUse" gradientTransform="translate(11.5 -36) rotate(55.2854) scale(279.198)">
<stop stop-color="white" stop-opacity="0.46"/>
<stop offset="1" stop-color="white" stop-opacity="0"/>
</radialGradient>
</defs>
</svg>
